<svg width="110" height="117" viewBox="0 0 110 117" fill="none" xmlns="http://www.w3.org/2000/svg">
<g filter="url(#filter0_d_33_6)">
<path d="M23 17.2263C32.2265 20.2976 35.8145 53.3781 36.4553 69.5344H39.3385C36.6155 70.9741 30.016 77.0208 25.4027 89.6899C25.8833 110.805 45.5856 103.127 48.4689 100.247C31.1693 86.8105 54.716 67.6149 59.5214 63.7758C83.3565 39.5892 87.7134 22.6651 86.9125 17.2263C84.5098 -0.529649 70.0934 7.14861 66.2491 10.9877C75.86 26.7282 59.6816 50.1788 50.3911 59.9366C50.5513 56.5774 50.8716 36.422 49.43 32.103C43.1829 6.18883 29.7276 11.4676 23 17.2263Z" fill="url(#paint0_linear_33_6)"/>
<path d="M77.0186 3.51074C79.7484 3.39871 82.6203 4.13835 84.9619 6.43652C87.2441 8.67648 88.7402 12.1226 89.3857 16.8623L89.4287 17.1953C89.822 20.7192 88.619 26.7365 84.6914 34.5889C80.5834 42.8019 73.3654 53.2888 61.3018 65.5303L61.1982 65.6367L61.082 65.7285C58.6743 67.6521 51.903 73.1779 47.8291 79.7324C45.7979 83.0004 44.5977 86.2746 44.7197 89.3203C44.8364 92.2312 46.1747 95.3 50.0029 98.2734L52.2422 100.013L50.2354 102.017C49.1196 103.131 46.9284 104.303 44.5459 105.141C42.0739 106.01 38.9762 106.67 35.8672 106.461C32.7227 106.249 29.4391 105.13 26.9355 102.313C24.4548 99.5229 23.0319 95.3936 22.9033 89.7471L22.8926 89.2764L23.0537 88.835C26.2899 79.9476 30.5342 74.0357 33.9951 70.5938L33.957 69.6338C33.6399 61.638 32.5928 49.4674 30.4961 38.9629C29.4454 33.6989 28.1528 28.9687 26.6113 25.4189C25.8409 23.6449 25.0446 22.2516 24.2471 21.2529C23.4432 20.2464 22.7482 19.7778 22.21 19.5986L18.0156 18.2021L21.374 15.3271C24.9091 12.3012 30.7872 8.86611 36.9805 10.3564C43.3699 11.8941 48.6497 18.269 51.8389 31.4307C52.2925 32.8742 52.5426 35.2009 52.7051 37.6348C52.8795 40.2472 52.9704 43.3268 53.0107 46.3467C53.0419 48.6787 53.0425 50.9956 53.0273 53.0615C56.6165 48.5282 60.4332 42.7709 63.1221 36.6943C67.0236 27.8771 68.2653 19.0881 64.1152 12.291L63.0889 10.6104L64.4824 9.21875C65.6563 8.04648 67.5018 6.70045 69.6279 5.61816C71.7526 4.53668 74.3489 3.62037 77.0186 3.51074Z" stroke="#004770" stroke-width="5"/>
</g>
<defs>
<filter id="filter0_d_33_6" x="9.03125" y="1.00021" width="86.968" height="116" filterUnits="userSpaceOnUse" color-interpolation-filters="sRGB">
<feFlood flood-opacity="0" result="BackgroundImageFix"/>
<feColorMatrix in="SourceAlpha" type="matrix" values="0 0 0 0 0 0 0 0 0 0 0 0 0 0 0 0 0 0 127 0" result="hardAlpha"/>
<feOffset dy="4"/>
<feGaussianBlur stdDeviation="2"/>
<feComposite in2="hardAlpha" operator="out"/>
<feColorMatrix type="matrix" values="0 0 0 0 0 0 0 0 0 0 0 0 0 0 0 0 0 0 0.25 0"/>
<feBlend mode="normal" in2="BackgroundImageFix" result="effect1_dropShadow_33_6"/>
<feBlend mode="normal" in="SourceGraphic" in2="effect1_dropShadow_33_6" result="shape"/>
</filter>
<linearGradient id="paint0_linear_33_6" x1="23" y1="66.3715" x2="86.9804" y2="43.5735" gradientUnits="userSpaceOnUse">
<stop stop-color="#508AE4"/>
<stop offset="1" stop-color="#BFDEF0"/>
</linearGradient>
</defs>
</svg>
